<svg xmlns="http://www.w3.org/2000/svg" width="107.988" height="132" viewBox="0 0 107.988 132">
  <g id="foo" transform="translate(1 1)" opacity="0.5">
    <path id="Контур_213" data-name="Контур 213" d="M185.388,166.042h50.821a1.9,1.9,0,0,0,0-3.809H185.388a1.9,1.9,0,0,0,0,3.809Z" transform="translate(-148.902 -121.041)" fill="#8e8e8e"/>
    <path id="Контур_213_-_Рамка" data-name="Контур 213 - Рамка" d="M236.209,167.042H185.388a2.9,2.9,0,0,1,0-5.809h50.821a2.9,2.9,0,0,1,0,5.809Zm-50.821-3.809a.9.9,0,0,0,0,1.809h50.821a.9.9,0,0,0,0-1.809Z" transform="translate(-148.902 -121.041)" fill="#8e8e8e"/>
    <path id="Контур_214" data-name="Контур 214" d="M185.388,221.63h50.821a1.9,1.9,0,1,0,0-3.809H185.388a1.9,1.9,0,1,0,0,3.809Z" transform="translate(-148.902 -162.515)" fill="#8e8e8e"/>
    <path id="Контур_214_-_Рамка" data-name="Контур 214 - Рамка" d="M236.209,222.63H185.388a2.9,2.9,0,1,1,0-5.809h50.821a2.9,2.9,0,1,1,0,5.809Zm-50.821-3.809a.9.9,0,1,0,0,1.809h50.821a.9.9,0,1,0,0-1.809Z" transform="translate(-148.902 -162.515)" fill="#8e8e8e"/>
    <path id="Контур_215" data-name="Контур 215" d="M185.388,277.218h50.821a1.9,1.9,0,0,0,0-3.809H185.388a1.9,1.9,0,0,0,0,3.809Z" transform="translate(-148.902 -203.989)" fill="#8e8e8e"/>
    <path id="Контур_215_-_Рамка" data-name="Контур 215 - Рамка" d="M236.209,278.218H185.388a2.9,2.9,0,0,1,0-5.809h50.821a2.9,2.9,0,0,1,0,5.809Zm-50.821-3.809a.9.9,0,0,0,0,1.809h50.821a.9.9,0,0,0,0-1.809Z" transform="translate(-148.902 -203.989)" fill="#8e8e8e"/>
    <path id="Контур_216" data-name="Контур 216" d="M153.27,24.381a1.921,1.921,0,0,0-.555-1.282L130.175.558A1.929,1.929,0,0,0,128.829,0H72.559a7.477,7.477,0,0,0-7.468,7.468V8.9H63.657a7.479,7.479,0,0,0-7.426,6.677H54.754a7.477,7.477,0,0,0-7.468,7.468V87.06a1.9,1.9,0,0,0,3.809,0V23.047a3.664,3.664,0,0,1,3.66-3.66h1.434v96.467a7.477,7.477,0,0,0,7.468,7.468H112.1a1.9,1.9,0,1,0,0-3.809H63.657a3.664,3.664,0,0,1-3.66-3.66V16.371a3.664,3.664,0,0,1,3.66-3.66h1.434V23.084a1.9,1.9,0,0,0,3.809,0V7.468a3.664,3.664,0,0,1,3.66-3.66h54.365V18.881a7.476,7.476,0,0,0,7.467,7.467h15.073v80.6a3.664,3.664,0,0,1-3.66,3.66H72.559a3.664,3.664,0,0,1-3.66-3.66V31.383a1.9,1.9,0,1,0-3.809,0v75.569a7.477,7.477,0,0,0,7.468,7.468h68v1.434a3.664,3.664,0,0,1-3.66,3.66H120.4a1.9,1.9,0,1,0,0,3.809h11.172A3.664,3.664,0,0,1,128,126.191H54.754a3.664,3.664,0,0,1-3.66-3.66V95.359a1.9,1.9,0,0,0-3.809,0v27.173A7.477,7.477,0,0,0,54.754,130H128a7.479,7.479,0,0,0,7.426-6.677H136.9a7.477,7.477,0,0,0,7.468-7.468v-1.434h1.434a7.477,7.477,0,0,0,7.468-7.468V24.445c0-.021,0-.043,0-.064Zm-18.878-1.84a3.663,3.663,0,0,1-3.659-3.659V6.5L146.772,22.54Z" transform="translate(-47.286 0)" fill="#8e8e8e"/>
    <path id="Контур_216_-_Рамка" data-name="Контур 216 - Рамка" d="M72.559-1h56.27a2.925,2.925,0,0,1,2.054.851l22.54,22.54a2.934,2.934,0,0,1,.846,1.945h0c0,.032,0,.063,0,.1v82.52a8.478,8.478,0,0,1-8.468,8.468h-.434v.434a8.478,8.478,0,0,1-8.468,8.468h-.626A8.482,8.482,0,0,1,128,131H54.754a8.478,8.478,0,0,1-8.468-8.468V95.359a2.9,2.9,0,1,1,5.809,0v27.173a2.663,2.663,0,0,0,2.66,2.66H128a2.667,2.667,0,0,0,1.958-.868H120.4a2.9,2.9,0,0,1,0-5.809h16.5a2.663,2.663,0,0,0,2.66-2.66v-.434h-67a8.478,8.478,0,0,1-8.468-8.468V31.383a2.9,2.9,0,0,1,5.809,0v75.569a2.663,2.663,0,0,0,2.66,2.66H145.8a2.663,2.663,0,0,0,2.66-2.66v-79.6H134.392a8.477,8.477,0,0,1-8.467-8.467V4.809H72.559a2.663,2.663,0,0,0-2.66,2.66V23.084a2.9,2.9,0,1,1-5.809,0V13.711h-.434A2.663,2.663,0,0,0,61,16.371v99.484a2.663,2.663,0,0,0,2.66,2.66H112.1a2.9,2.9,0,1,1,0,5.809H63.657a8.478,8.478,0,0,1-8.468-8.468V20.388h-.434a2.663,2.663,0,0,0-2.66,2.66V87.06a2.9,2.9,0,1,1-5.809,0V23.048a8.478,8.478,0,0,1,8.468-8.468h.626A8.482,8.482,0,0,1,63.657,7.9h.434V7.468A8.478,8.478,0,0,1,72.559-1Zm79.715,25.47c0-.018,0-.036,0-.055a.927.927,0,0,0-.262-.61L129.468,1.265a.923.923,0,0,0-.64-.265H72.559a6.476,6.476,0,0,0-6.468,6.468V9.9H63.657a6.479,6.479,0,0,0-6.432,5.782l-.095.895H54.754a6.476,6.476,0,0,0-6.468,6.468V87.06a.9.9,0,1,0,1.809,0V23.047a4.665,4.665,0,0,1,4.66-4.66h2.434v97.467a6.476,6.476,0,0,0,6.468,6.468H112.1a.9.9,0,1,0,0-1.809H63.657a4.665,4.665,0,0,1-4.66-4.66V16.371a4.665,4.665,0,0,1,4.66-4.66h2.434V23.084a.9.9,0,1,0,1.809,0V7.468a4.665,4.665,0,0,1,4.66-4.66h55.365V18.881a6.475,6.475,0,0,0,6.467,6.467h16.073v81.6a4.665,4.665,0,0,1-4.66,4.66H72.559a4.665,4.665,0,0,1-4.66-4.66V31.383a.9.9,0,0,0-1.809,0v75.569a6.476,6.476,0,0,0,6.468,6.468h69v2.434a4.665,4.665,0,0,1-4.66,4.66H120.4a.9.9,0,0,0,0,1.809h12.418l-.27,1.216A4.664,4.664,0,0,1,128,127.191H54.754a4.665,4.665,0,0,1-4.66-4.66V95.359a.9.9,0,1,0-1.809,0v27.173A6.476,6.476,0,0,0,54.754,129H128a6.479,6.479,0,0,0,6.432-5.782l.095-.895H136.9a6.476,6.476,0,0,0,6.468-6.468v-2.434h2.434a6.476,6.476,0,0,0,6.468-6.468ZM129.733,4.087,149.186,23.54H134.392a4.664,4.664,0,0,1-4.659-4.659ZM144.358,21.54,131.733,8.916v9.966a2.662,2.662,0,0,0,2.659,2.659Z" transform="translate(-47.286 0)" fill="#8e8e8e"/>
  </g>
</svg>
