<svg xmlns="http://www.w3.org/2000/svg" width="20" height="19.13" viewBox="0 0 20 19.13">
  <g transform="translate(0 -0.332)">
    <path id="Контур_151" data-name="Контур 151" d="M13.261,220.3H.652a.652.652,0,0,1,0-1.3H13.261a.652.652,0,0,1,0,1.3Zm0,0" transform="translate(0 -209.755)"/>
    <path id="Контур_152" data-name="Контур 152" d="M224.656,141.891a.653.653,0,0,1-.461-1.114l3.017-3.017-3.017-3.017a.652.652,0,0,1,.923-.923L228.6,137.3a.652.652,0,0,1,0,.923l-3.478,3.478A.647.647,0,0,1,224.656,141.891Zm0,0" transform="translate(-214.873 -127.864)"/>
    <path id="Контур_153" data-name="Контур 153" d="M45.42,19.463a9.516,9.516,0,0,1-8.9-6.066.652.652,0,1,1,1.214-.476,8.261,8.261,0,1,0,0-6.045A.652.652,0,1,1,36.517,6.4a9.565,9.565,0,1,1,8.9,13.064Zm0,0" transform="translate(-34.985)"/>
  </g>
</svg>
