<svg xmlns="http://www.w3.org/2000/svg" width="59.375" height="24.999" viewBox="0 0 59.375 24.999">
  <g id="g-pay" transform="translate(-983 -1210)" opacity="0.5">
    <g id="Сгруппировать_1818" data-name="Сгруппировать 1818" transform="translate(1008.143 1211.443)">
      <path id="Контур_1511" data-name="Контур 1511" d="M34.424,19.96V12.623h3.7a5.279,5.279,0,0,0,3.842-1.545l.251-.26a5.367,5.367,0,0,0-.251-7.395,5.224,5.224,0,0,0-3.842-1.574H32.183V19.96Zm0-9.561V4.073h3.759a3,3,0,0,1,2.144.9A3.271,3.271,0,0,1,40.4,9.46a2.879,2.879,0,0,1-2.214.939Z" transform="translate(-32.183 -1.848)" fill="#9d9c9c" fill-rule="evenodd"/>
      <path id="Контур_1512" data-name="Контур 1512" d="M55.855,10.024a5.48,5.48,0,0,0-3.926-1.372,5.362,5.362,0,0,0-4.789,2.412l1.977,1.285A3.38,3.38,0,0,1,52.083,10.7a3.192,3.192,0,0,1,2.158.852,2.759,2.759,0,0,1,.919,2.065v.534a6.551,6.551,0,0,0-3.285-.751,5.728,5.728,0,0,0-3.745,1.141,3.753,3.753,0,0,0-1.406,3.062,3.893,3.893,0,0,0,1.323,3.033,4.7,4.7,0,0,0,3.3,1.213,4.247,4.247,0,0,0,3.7-2.123h.1v1.719h2.144v-7.64A4.972,4.972,0,0,0,55.855,10.024Zm-6.083,9.142a1.9,1.9,0,0,1-.738-1.516,2.041,2.041,0,0,1,.905-1.69,3.779,3.779,0,0,1,2.283-.679,4.372,4.372,0,0,1,2.924.852,3.757,3.757,0,0,1-3.634,3.639A2.675,2.675,0,0,1,49.772,19.166Z" transform="translate(-35.364 -3.337)" fill="#9d9c9c" fill-rule="evenodd"/>
      <path id="Контур_1513" data-name="Контур 1513" d="M65.17,27.006,72.66,9.17H70.223l-3.466,8.9h-.042l-3.55-8.9H60.729l4.914,11.6-2.784,6.239Z" transform="translate(-38.427 -3.45)" fill="#9d9c9c"/>
    </g>
    <g id="Сгруппировать_1819" data-name="Сгруппировать 1819" transform="translate(983 1210)">
      <path id="Контур_1514" data-name="Контур 1514" d="M22.454,13.016a13.312,13.312,0,0,0-.167-2.109H12.834v4H18.25a4.83,4.83,0,0,1-2,3.163v2.6h3.23A10.339,10.339,0,0,0,22.454,13.016Z" transform="translate(-2.807 -2.385)" fill="#e6e6e6"/>
      <path id="Контур_1515" data-name="Контур 1515" d="M10.328,24.267a9.387,9.387,0,0,0,6.64-2.513l-3.23-2.6a5.848,5.848,0,0,1-3.41,1A6.027,6.027,0,0,1,4.7,15.862H1.377v2.686A9.98,9.98,0,0,0,10.328,24.267Z" transform="translate(-0.301 -3.47)" fill="#e6e6e6"/>
      <path id="Контур_1516" data-name="Контур 1516" d="M4.4,14a6.5,6.5,0,0,1,0-3.986V7.34H1.076a10.654,10.654,0,0,0,0,9.33Z" transform="translate(0 -1.606)" fill="#e6e6e6"/>
      <path id="Контур_1517" data-name="Контур 1517" d="M10.328,4.117a5.29,5.29,0,0,1,3.842,1.56L17.038,2.7A9.485,9.485,0,0,0,10.328,0,9.993,9.993,0,0,0,1.377,5.734L4.7,8.421A6.022,6.022,0,0,1,10.328,4.117Z" transform="translate(-0.301 0)" fill="#e6e6e6"/>
    </g>
  </g>
</svg>
