<svg xmlns="http://www.w3.org/2000/svg" width="52.536" height="16" viewBox="0 0 52.536 16">
  <g id="mc-secure-code" transform="translate(-1101.036 -1289.015)" opacity="0.5">
    <path id="Контур_206" data-name="Контур 206" d="M4.965,25.892a3.765,3.765,0,0,0-.86-.405,3.052,3.052,0,0,0-.939-.144,2.414,2.414,0,0,0-.586.066,1.44,1.44,0,0,0-.456.192.95.95,0,0,0-.3.3.759.759,0,0,0-.105.4.622.622,0,0,0,.092.343.752.752,0,0,0,.263.241,1.719,1.719,0,0,0,.419.163,5.332,5.332,0,0,0,.559.11l.444.06a4.87,4.87,0,0,1,.76.17,2.306,2.306,0,0,1,.661.32,1.586,1.586,0,0,1,.467.517,1.511,1.511,0,0,1,.176.755,1.765,1.765,0,0,1-.206.865,1.909,1.909,0,0,1-.558.632,2.578,2.578,0,0,1-.817.389A3.579,3.579,0,0,1,3,31,4.7,4.7,0,0,1,1.63,30.78a4.206,4.206,0,0,1-.653-.268,2.785,2.785,0,0,1-.559-.376l.563-.824a2.078,2.078,0,0,0,.4.279,3.475,3.475,0,0,0,1.048.373,3.119,3.119,0,0,0,.565.053,2.547,2.547,0,0,0,.588-.064,1.6,1.6,0,0,0,.474-.188,1,1,0,0,0,.318-.3.7.7,0,0,0,.117-.4A.62.62,0,0,0,4.12,28.5,3.3,3.3,0,0,0,3.047,28.2l-.5-.069a3.906,3.906,0,0,1-.7-.165,2.021,2.021,0,0,1-.609-.323,1.558,1.558,0,0,1-.43-.522,1.635,1.635,0,0,1-.163-.762,1.784,1.784,0,0,1,.2-.854,1.864,1.864,0,0,1,.542-.627,2.489,2.489,0,0,1,.8-.387,3.516,3.516,0,0,1,.982-.133,4.04,4.04,0,0,1,1.265.185,4.365,4.365,0,0,1,1.051.506l-.527.837Zm3.493.49a2.087,2.087,0,0,1,.84.167,1.879,1.879,0,0,1,.654.472,2.207,2.207,0,0,1,.426.728,2.735,2.735,0,0,1,.153.936,2.989,2.989,0,0,1-.019.357H7.272a1.415,1.415,0,0,0,.169.508,1.188,1.188,0,0,0,.3.346,1.171,1.171,0,0,0,.389.2,1.553,1.553,0,0,0,.448.064,1.915,1.915,0,0,0,.662-.121,2.145,2.145,0,0,0,.607-.341l.476.682a2.376,2.376,0,0,1-.853.48,3.233,3.233,0,0,1-.95.138,2.422,2.422,0,0,1-.906-.165,2.057,2.057,0,0,1-.71-.467,2.1,2.1,0,0,1-.462-.728,2.6,2.6,0,0,1-.165-.947,2.639,2.639,0,0,1,.16-.938,2.14,2.14,0,0,1,.448-.73,2,2,0,0,1,.689-.472,2.283,2.283,0,0,1,.886-.167Zm-.019.852a1.251,1.251,0,0,0-.456.077.994.994,0,0,0-.343.222,1.172,1.172,0,0,0-.235.343,1.627,1.627,0,0,0-.128.437H9.551a1.368,1.368,0,0,0-.366-.8,1.019,1.019,0,0,0-.746-.284Zm5.086-.852a2.378,2.378,0,0,1,.92.176,1.85,1.85,0,0,1,.719.524l-.614.654a1.842,1.842,0,0,0-.485-.336,1.334,1.334,0,0,0-.567-.116,1.275,1.275,0,0,0-.513.1,1.225,1.225,0,0,0-.412.288,1.335,1.335,0,0,0-.272.444,1.7,1.7,0,0,0,0,1.14,1.331,1.331,0,0,0,.272.444,1.23,1.23,0,0,0,.412.288,1.275,1.275,0,0,0,.513.1,1.36,1.36,0,0,0,.59-.13,1.886,1.886,0,0,0,.485-.327l.591.659a1.94,1.94,0,0,1-.723.524,2.346,2.346,0,0,1-.915.176,2.461,2.461,0,0,1-.948-.176A2.119,2.119,0,0,1,11.382,29.6a2.623,2.623,0,0,1,0-1.831,2.123,2.123,0,0,1,1.195-1.215,2.454,2.454,0,0,1,.947-.176Zm6.546,2.641a2.119,2.119,0,0,1-.174.9,1.747,1.747,0,0,1-.458.614,1.834,1.834,0,0,1-.65.35,2.562,2.562,0,0,1-1.5,0,1.858,1.858,0,0,1-.652-.35,1.7,1.7,0,0,1-.458-.614,2.138,2.138,0,0,1-.172-.9V26.5h.961v2.44a1.552,1.552,0,0,0,.082.538.939.939,0,0,0,.226.359.865.865,0,0,0,.341.2,1.473,1.473,0,0,0,.843,0,.866.866,0,0,0,.341-.2.934.934,0,0,0,.226-.359,1.542,1.542,0,0,0,.083-.538V26.5h.961Zm3.493-2.641a2.4,2.4,0,0,1,.4.03,1.733,1.733,0,0,1,.341.094l-.229.948a1.37,1.37,0,0,0-.352-.12,1.884,1.884,0,0,0-.376-.041,1.113,1.113,0,0,0-.421.078.89.89,0,0,0-.329.229,1.081,1.081,0,0,0-.215.371,1.491,1.491,0,0,0-.078.5v2.412h-.957V26.5h.947v.494a1.315,1.315,0,0,1,.545-.462A1.752,1.752,0,0,1,23.563,26.382Zm3.214,0a2.079,2.079,0,0,1,.84.167,1.889,1.889,0,0,1,.655.472,2.221,2.221,0,0,1,.426.728,2.745,2.745,0,0,1,.153.936,3.145,3.145,0,0,1-.018.357H25.591a1.408,1.408,0,0,0,.17.508,1.193,1.193,0,0,0,.3.346,1.163,1.163,0,0,0,.389.2,1.558,1.558,0,0,0,.448.064,1.917,1.917,0,0,0,.662-.121,2.149,2.149,0,0,0,.607-.341l.476.682a2.378,2.378,0,0,1-.854.48,3.232,3.232,0,0,1-.95.138,2.424,2.424,0,0,1-.906-.165,2.056,2.056,0,0,1-.709-.467,2.1,2.1,0,0,1-.462-.728,2.594,2.594,0,0,1-.165-.947,2.639,2.639,0,0,1,.16-.938,2.14,2.14,0,0,1,.448-.73,2,2,0,0,1,.689-.472,2.286,2.286,0,0,1,.886-.167Zm-.019.852a1.247,1.247,0,0,0-.456.077,1,1,0,0,0-.343.222,1.17,1.17,0,0,0-.235.343,1.627,1.627,0,0,0-.128.437h2.275a1.369,1.369,0,0,0-.366-.8,1.018,1.018,0,0,0-.746-.284Zm6.221-2.88a3.663,3.663,0,0,1,.824.092,3.232,3.232,0,0,1,.742.265,2.9,2.9,0,0,1,.622.424,2.427,2.427,0,0,1,.467.561l-.865.577a2.1,2.1,0,0,0-.753-.677,2.161,2.161,0,0,0-1.037-.247,2.387,2.387,0,0,0-.906.169,2.12,2.12,0,0,0-.719.477,2.191,2.191,0,0,0-.473.737,2.7,2.7,0,0,0,0,1.9,2.2,2.2,0,0,0,.473.737,2.1,2.1,0,0,0,.719.476,2.379,2.379,0,0,0,.906.17,2.1,2.1,0,0,0,1.785-.92l.843.618a2.785,2.785,0,0,1-.483.54,3.016,3.016,0,0,1-.614.407,3.218,3.218,0,0,1-.723.259,3.765,3.765,0,0,1-2.163-.161,3.1,3.1,0,0,1-1.753-1.746,3.687,3.687,0,0,1,0-2.655A3.094,3.094,0,0,1,31.625,24.6a3.573,3.573,0,0,1,1.355-.25Zm5.654,2.028a2.468,2.468,0,0,1,.94.176,2.293,2.293,0,0,1,.748.485,2.22,2.22,0,0,1,.495.73,2.44,2.44,0,0,1,0,1.831,2.224,2.224,0,0,1-.495.731,2.3,2.3,0,0,1-.748.485,2.6,2.6,0,0,1-1.882,0,2.269,2.269,0,0,1-.746-.485,2.238,2.238,0,0,1-.493-.731,2.439,2.439,0,0,1,0-1.831,2.236,2.236,0,0,1,.492-.73,2.266,2.266,0,0,1,.746-.486,2.468,2.468,0,0,1,.941-.176Zm0,.9a1.424,1.424,0,0,0-.545.1,1.289,1.289,0,0,0-.723.732,1.6,1.6,0,0,0,0,1.14,1.343,1.343,0,0,0,.289.444,1.3,1.3,0,0,0,.435.288,1.5,1.5,0,0,0,1.089,0,1.3,1.3,0,0,0,.728-.732,1.6,1.6,0,0,0,0-1.14,1.335,1.335,0,0,0-.291-.444,1.319,1.319,0,0,0-.437-.288,1.424,1.424,0,0,0-.544-.1Zm5.241-.9a1.66,1.66,0,0,1,1.378.646V24.29h.957v6.592h-.957v-.526a1.7,1.7,0,0,1-.568.467,1.753,1.753,0,0,1-.81.174,2.144,2.144,0,0,1-1.556-.65,2.206,2.206,0,0,1-.467-.73,2.618,2.618,0,0,1,0-1.854,2.215,2.215,0,0,1,.467-.73,2.14,2.14,0,0,1,1.556-.65Zm.114.9a1.324,1.324,0,0,0-.556.112,1.248,1.248,0,0,0-.414.3,1.341,1.341,0,0,0-.261.447,1.667,1.667,0,0,0,0,1.089,1.345,1.345,0,0,0,.261.447,1.244,1.244,0,0,0,.414.3,1.428,1.428,0,0,0,1.1,0,1.251,1.251,0,0,0,.417-.3,1.328,1.328,0,0,0,.27-.444,1.669,1.669,0,0,0,0-1.117,1.332,1.332,0,0,0-.27-.444,1.256,1.256,0,0,0-.417-.3,1.324,1.324,0,0,0-.54-.107Zm5.406-.9a2.082,2.082,0,0,1,.84.167,1.877,1.877,0,0,1,.655.472,2.214,2.214,0,0,1,.426.728,2.726,2.726,0,0,1,.153.936,3.159,3.159,0,0,1-.018.357H48.209a1.408,1.408,0,0,0,.17.508,1.188,1.188,0,0,0,.3.346,1.165,1.165,0,0,0,.389.2,1.558,1.558,0,0,0,.449.064,1.913,1.913,0,0,0,.662-.121,2.153,2.153,0,0,0,.607-.341l.476.682a2.386,2.386,0,0,1-.854.48,3.227,3.227,0,0,1-.949.138,2.423,2.423,0,0,1-.906-.165,2.055,2.055,0,0,1-.71-.467,2.109,2.109,0,0,1-.462-.728,2.594,2.594,0,0,1-.165-.947,2.639,2.639,0,0,1,.16-.938,2.141,2.141,0,0,1,.449-.73,2,2,0,0,1,.689-.472,2.284,2.284,0,0,1,.886-.167Zm2.53,4.5v-.22h.089v-.045h-.226v.045h.089v.22h.049Zm.44,0v-.266H52.3l-.08.183-.08-.183h-.069v.265h.049v-.2l.075.173h.051l.075-.174v.2h.049Zm-2.988-3.648a1.247,1.247,0,0,0-.456.077,1,1,0,0,0-.343.222,1.171,1.171,0,0,0-.236.343,1.617,1.617,0,0,0-.128.437h2.275a1.368,1.368,0,0,0-.366-.8,1.018,1.018,0,0,0-.746-.284Z" transform="translate(1100.617 1274.014)" fill="#e6e6e6"/>
    <path id="Контур_207" data-name="Контур 207" d="M8.937,7.581H7.864V2.111L5.922,6.93H4.792L2.85,2.164V7.581H1.777V.934H3.425L5.357,5.682,7.29.934H8.937Zm5.65,0h-.992V7.036a1.753,1.753,0,0,1-.589.484,1.814,1.814,0,0,1-.84.181,2.217,2.217,0,0,1-1.615-.675,2.3,2.3,0,0,1-.484-.757,2.563,2.563,0,0,1-.176-.961,2.563,2.563,0,0,1,.176-.961,2.3,2.3,0,0,1,.484-.757,2.216,2.216,0,0,1,1.615-.675,1.8,1.8,0,0,1,.84.183,1.779,1.779,0,0,1,.589.486V3.033h.992Zm-2.3-3.732a1.373,1.373,0,0,0-.577.116,1.3,1.3,0,0,0-.43.314,1.388,1.388,0,0,0-.27.463,1.729,1.729,0,0,0,0,1.13,1.381,1.381,0,0,0,.271.463,1.285,1.285,0,0,0,.43.314,1.473,1.473,0,0,0,1.136,0,1.3,1.3,0,0,0,.432-.306,1.38,1.38,0,0,0,.28-.46,1.735,1.735,0,0,0,0-1.159,1.388,1.388,0,0,0-.28-.461,1.306,1.306,0,0,0-.432-.306,1.37,1.37,0,0,0-.56-.111Zm6.861.323a2.9,2.9,0,0,0-.593-.256,3.53,3.53,0,0,0-.392-.095,2.318,2.318,0,0,0-.42-.038,1.14,1.14,0,0,0-.634.149.452.452,0,0,0-.226.392.328.328,0,0,0,.059.2.457.457,0,0,0,.159.133.983.983,0,0,0,.237.083c.092.021.19.039.295.054l.47.071a2.454,2.454,0,0,1,1.164.434,1.088,1.088,0,0,1,.418.91,1.3,1.3,0,0,1-.14.6,1.357,1.357,0,0,1-.4.47,1.981,1.981,0,0,1-.651.306,3.234,3.234,0,0,1-.876.108c-.117,0-.253-.007-.408-.021a3.419,3.419,0,0,1-.494-.085,3.583,3.583,0,0,1-.532-.178,2.448,2.448,0,0,1-.518-.3l.46-.746a2.4,2.4,0,0,0,.268.178,1.949,1.949,0,0,0,.327.148,2.526,2.526,0,0,0,.4.1,2.975,2.975,0,0,0,.5.038,1.59,1.59,0,0,0,.774-.149.454.454,0,0,0,.261-.406.374.374,0,0,0-.19-.32,1.5,1.5,0,0,0-.6-.183l-.475-.062a2.184,2.184,0,0,1-1.151-.444,1.121,1.121,0,0,1-.392-.89,1.376,1.376,0,0,1,.131-.607,1.263,1.263,0,0,1,.375-.458,1.794,1.794,0,0,1,.592-.29,2.766,2.766,0,0,1,.783-.1,3.912,3.912,0,0,1,1.011.126,2.882,2.882,0,0,1,.831.353l-.427.774Zm4.71-.237H22.113v1.98a1.183,1.183,0,0,0,.057.389.723.723,0,0,0,.155.263.587.587,0,0,0,.228.15.823.823,0,0,0,.283.047,1.322,1.322,0,0,0,.472-.091,2.447,2.447,0,0,0,.444-.218l.394.793a3.117,3.117,0,0,1-.619.318,2.139,2.139,0,0,1-.776.133,1.626,1.626,0,0,1-1.2-.43,1.823,1.823,0,0,1-.43-1.337v-2h-.907v-.9h.907V1.656h1V3.033h1.742Zm3.053-1.021a2.154,2.154,0,0,1,.872.174,1.94,1.94,0,0,1,.678.489,2.294,2.294,0,0,1,.442.755,2.835,2.835,0,0,1,.159.971q0,.186-.019.37H25.678a1.476,1.476,0,0,0,.176.527,1.251,1.251,0,0,0,.308.358,1.216,1.216,0,0,0,.4.207,1.613,1.613,0,0,0,.465.066,1.987,1.987,0,0,0,.686-.126,2.209,2.209,0,0,0,.629-.353l.494.707a2.476,2.476,0,0,1-.886.5,3.365,3.365,0,0,1-.985.142,2.515,2.515,0,0,1-.94-.171,2.128,2.128,0,0,1-.736-.484,2.186,2.186,0,0,1-.48-.755,2.7,2.7,0,0,1-.171-.983,2.75,2.75,0,0,1,.166-.974,2.23,2.23,0,0,1,.465-.757,2.069,2.069,0,0,1,.715-.489,2.364,2.364,0,0,1,.919-.174Zm-.019.884a1.3,1.3,0,0,0-.473.08,1.017,1.017,0,0,0-.356.23,1.208,1.208,0,0,0-.245.356,1.7,1.7,0,0,0-.133.454h2.36a1.417,1.417,0,0,0-.38-.826,1.056,1.056,0,0,0-.774-.294ZM32.5,2.914a2.432,2.432,0,0,1,.41.031,1.784,1.784,0,0,1,.354.1l-.237.983a1.415,1.415,0,0,0-.366-.123,1.964,1.964,0,0,0-.389-.042,1.152,1.152,0,0,0-.437.08.921.921,0,0,0-.342.237,1.122,1.122,0,0,0-.223.385,1.547,1.547,0,0,0-.08.518v2.5h-.992V3.033h.983v.513a1.369,1.369,0,0,1,.565-.48,1.815,1.815,0,0,1,.755-.152Zm3.395,0a2.47,2.47,0,0,1,.955.183,1.92,1.92,0,0,1,.745.544l-.636.68a1.91,1.91,0,0,0-.5-.349,1.392,1.392,0,0,0-.589-.121,1.324,1.324,0,0,0-.532.107,1.262,1.262,0,0,0-.428.3,1.386,1.386,0,0,0-.282.46,1.762,1.762,0,0,0,0,1.183,1.39,1.39,0,0,0,.282.46,1.271,1.271,0,0,0,.428.3,1.316,1.316,0,0,0,.532.107,1.412,1.412,0,0,0,.612-.135,1.961,1.961,0,0,0,.5-.34l.612.684a2.006,2.006,0,0,1-.749.544,2.438,2.438,0,0,1-.95.183,2.542,2.542,0,0,1-.982-.183,2.193,2.193,0,0,1-1.239-1.26,2.721,2.721,0,0,1,0-1.9A2.194,2.194,0,0,1,34.909,3.1a2.546,2.546,0,0,1,.983-.183Zm6.99,4.668h-.993V7.036a1.754,1.754,0,0,1-.589.484,1.814,1.814,0,0,1-.84.181,2.216,2.216,0,0,1-1.615-.675,2.293,2.293,0,0,1-.484-.757,2.714,2.714,0,0,1,0-1.923,2.3,2.3,0,0,1,.484-.757,2.216,2.216,0,0,1,1.614-.675A1.8,1.8,0,0,1,41.3,3.1a1.778,1.778,0,0,1,.589.486V3.033h.992V7.581Zm-2.3-3.732A1.375,1.375,0,0,0,40,3.966a1.3,1.3,0,0,0-.429.314,1.4,1.4,0,0,0-.271.463,1.733,1.733,0,0,0,0,1.13,1.381,1.381,0,0,0,.271.463A1.29,1.29,0,0,0,40,6.649a1.475,1.475,0,0,0,1.137,0,1.3,1.3,0,0,0,.432-.306,1.387,1.387,0,0,0,.28-.46,1.732,1.732,0,0,0,0-1.159,1.387,1.387,0,0,0-.28-.461,1.306,1.306,0,0,0-.432-.306,1.373,1.373,0,0,0-.561-.111Zm6.068-.936a2.445,2.445,0,0,1,.411.031,1.8,1.8,0,0,1,.353.1l-.237.983a1.409,1.409,0,0,0-.365-.123,1.972,1.972,0,0,0-.39-.042,1.145,1.145,0,0,0-.436.08.919.919,0,0,0-.342.237,1.122,1.122,0,0,0-.223.385,1.544,1.544,0,0,0-.081.518v2.5h-.992V3.033h.983v.513a1.367,1.367,0,0,1,.565-.48A1.816,1.816,0,0,1,46.646,2.914Zm3.257,0a1.723,1.723,0,0,1,1.43.669V.744h.992V7.581h-.992V7.036a1.754,1.754,0,0,1-.589.484,1.814,1.814,0,0,1-.84.181,2.214,2.214,0,0,1-1.615-.675,2.3,2.3,0,0,1-.484-.757,2.714,2.714,0,0,1,0-1.923,2.3,2.3,0,0,1,.484-.757A2.216,2.216,0,0,1,49.9,2.914Zm3.58,4.247a.3.3,0,0,1,.271.177.279.279,0,0,1,.023.112.286.286,0,0,1-.086.2.3.3,0,0,1-.325.062.294.294,0,0,1-.157-.154.274.274,0,0,1-.023-.112.285.285,0,0,1,.023-.112.3.3,0,0,1,.273-.177Zm0,.515a.225.225,0,0,0,.223-.226.225.225,0,1,0-.432.088.226.226,0,0,0,.209.138Zm.017-.361a.122.122,0,0,1,.08.023.078.078,0,0,1,.028.063.073.073,0,0,1-.022.055.107.107,0,0,1-.064.026l.088.1h-.069l-.081-.1h-.026v.1h-.058V7.315H53.5Zm-.066.05v.072H53.5a.063.063,0,0,0,.035-.009.033.033,0,0,0,0-.054.066.066,0,0,0-.036-.009h-.066ZM50.022,3.85a1.373,1.373,0,0,0-.577.116,1.3,1.3,0,0,0-.43.314,1.4,1.4,0,0,0-.271.463,1.732,1.732,0,0,0,0,1.13,1.386,1.386,0,0,0,.271.463,1.289,1.289,0,0,0,.43.314,1.475,1.475,0,0,0,1.137,0,1.3,1.3,0,0,0,.432-.306,1.381,1.381,0,0,0,.28-.46,1.726,1.726,0,0,0,0-1.159,1.383,1.383,0,0,0-.28-.461,1.306,1.306,0,0,0-.432-.306,1.373,1.373,0,0,0-.561-.111Z" transform="translate(1099.794 1288.271)" fill="#d9d9d9"/>
  </g>
</svg>
