<svg xmlns="http://www.w3.org/2000/svg" width="25.888" height="16" viewBox="0 0 25.888 16">
  <g id="mc" transform="translate(-721.542 -1277.959)">
    <g id="mc-2" data-name="mc" transform="translate(746.715 1290.624)">
      <path id="Контур_1544" data-name="Контур 1544" d="M50.3,25.714v-.258h.1V25.4h-.264v.052h.1v.258Zm.513,0V25.4h-.081l-.093.214-.093-.214H50.47v.311h.057v-.234l.087.2h.059l.087-.2v.235Z" transform="translate(-50.144 -25.403)" fill="#d9d9d9"/>
    </g>
    <g id="layer1" transform="translate(721.542 1277.959)">
      <g id="g13" transform="translate(0 0)">
        <g id="XMLID_328_" transform="translate(0 0)">
          <path id="rect19" d="M0,0H7V12.578H0Z" transform="translate(9.444 1.711)" fill="#ccc"/>
          <path id="XMLID_330_" d="M2908.623,2247.5a8.022,8.022,0,0,1,3.045-6.288,8,8,0,1,0,0,12.577A7.99,7.99,0,0,1,2908.623,2247.5Z" transform="translate(-2898.734 -2239.502)" fill="#d9d9d9"/>
          <path id="path22" d="M3412.1,2247.5a7.991,7.991,0,0,1-12.933,6.289,8.018,8.018,0,0,0,0-12.577,7.991,7.991,0,0,1,12.933,6.288Z" transform="translate(-3386.213 -2239.502)" fill="#d9d9d9"/>
        </g>
      </g>
    </g>
  </g>
</svg>
