<svg xmlns="http://www.w3.org/2000/svg" width="42.533" height="20" viewBox="0 0 42.533 20">
  <g id="mir-accept" transform="translate(-1039.846 -1286.301)" opacity="0.5">
    <path id="Контур_1550" data-name="Контур 1550" d="M0,0H19.542c4.762,0,8.047,4.893,8.047,8.861v1.772H10.346A10.492,10.492,0,0,1,0,0Z" transform="translate(1039.846 1286.301)" fill="#d9d9d9"/>
    <g id="Контур_1551" data-name="Контур 1551" transform="translate(1054.79 1295.668)" fill="none">
      <path d="M0,0H19.542c4.762,0,8.047,4.893,8.047,8.861v1.772H10.346A10.492,10.492,0,0,1,0,0Z" stroke="none"/>
      <path d="M 0.4074916839599609 0.3999958038330078 C 0.6124324798583984 5.85789966583252 4.991863250732422 10.23317623138428 10.34578514099121 10.23317623138428 L 27.18876457214355 10.23317623138428 L 27.18876457214355 8.860976219177246 C 27.18876457214355 6.945785999298096 26.3863353729248 4.828405857086182 25.04225540161133 3.197006225585938 C 23.55624389648438 1.393325805664062 21.6029052734375 0.3999958038330078 19.54204559326172 0.3999958038330078 L 0.4074916839599609 0.3999958038330078 M -5.7220458984375e-06 -3.814697265625e-06 L 19.54204559326172 -3.814697265625e-06 C 24.30355453491211 -3.814697265625e-06 27.58876419067383 4.893425941467285 27.58876419067383 8.860976219177246 L 27.58876419067383 10.63317584991455 L 10.34578514099121 10.63317584991455 C 4.631965637207031 10.63317584991455 -5.7220458984375e-06 5.872536182403564 -5.7220458984375e-06 -3.814697265625e-06 Z" stroke="none" fill="#d9d9d9"/>
    </g>
    <path id="Контур_1552" data-name="Контур 1552" d="M1.71,0l-.2-.471H.474L.279,0H.117L.966-2.01h.063L1.875,0ZM1-1.731.534-.612h.921ZM2.1-.726a.711.711,0,0,1,.217-.534.7.7,0,0,1,.533-.219.691.691,0,0,1,.585.3L3.324-1.1a.57.57,0,0,0-.477-.243.562.562,0,0,0-.423.179.6.6,0,0,0-.171.433.607.607,0,0,0,.171.437.559.559,0,0,0,.42.178.583.583,0,0,0,.48-.243l.108.087a.694.694,0,0,1-.588.3.7.7,0,0,1-.53-.221A.716.716,0,0,1,2.1-.726Zm1.6,0a.711.711,0,0,1,.217-.534.7.7,0,0,1,.533-.219.691.691,0,0,1,.585.3L4.926-1.1a.57.57,0,0,0-.477-.243.562.562,0,0,0-.423.179.6.6,0,0,0-.171.433.607.607,0,0,0,.171.437.559.559,0,0,0,.42.178.583.583,0,0,0,.48-.243l.108.087a.694.694,0,0,1-.588.3.7.7,0,0,1-.53-.221A.716.716,0,0,1,3.7-.726Zm2.97.036H5.457a.594.594,0,0,0,.181.415.576.576,0,0,0,.416.164.605.605,0,0,0,.483-.228l.1.1a.734.734,0,0,1-.582.27.7.7,0,0,1-.532-.219A.711.711,0,0,1,5.3-.723a.723.723,0,0,1,.213-.535.678.678,0,0,1,.519-.22.64.64,0,0,1,.46.18.616.616,0,0,1,.188.465A.616.616,0,0,1,6.669-.69ZM5.463-.825H6.525A.472.472,0,0,0,6.389-1.2a.5.5,0,0,0-.362-.142.527.527,0,0,0-.375.147A.585.585,0,0,0,5.463-.825Zm3.1.1a.749.749,0,0,1-.208.537A.679.679,0,0,1,7.839.03.732.732,0,0,1,7.5-.053a.586.586,0,0,1-.243-.227V.54H7.1V-1.449h.144v.291a.587.587,0,0,1,.242-.234.722.722,0,0,1,.349-.087.679.679,0,0,1,.512.219A.746.746,0,0,1,8.559-.726Zm-.321.441A.618.618,0,0,0,8.4-.723a.618.618,0,0,0-.165-.438.542.542,0,0,0-.414-.177.561.561,0,0,0-.405.159.6.6,0,0,0-.165.453.6.6,0,0,0,.165.456.561.561,0,0,0,.405.159A.547.547,0,0,0,8.238-.285Zm1.47.153V0a.837.837,0,0,1-.225.03.464.464,0,0,1-.327-.108.424.424,0,0,1-.117-.327v-.906H8.787v-.138h.252V-1.86h.153v.411H9.66v.138H9.192v.9q0,.3.315.3A1.058,1.058,0,0,0,9.708-.132Z" transform="translate(1063.94 1301.811)" fill="#d9d9d9"/>
    <g id="Page-1" transform="translate(1047.318 1289.864)">
      <g id="Artboard">
        <g id="Group">
          <path id="Combined-Shape" d="M502,89v2.091h1.162V89.852h1.317a1.288,1.288,0,0,0,1.2-.852Z" transform="translate(-492.281 -87.277)" fill="#a5a5a5" fill-rule="evenodd"/>
          <path id="Combined-Shape-2" data-name="Combined-Shape" d="M494,0a1.788,1.788,0,0,0,1.864,1.53h2.02a1.3,1.3,0,0,0,.023-.242A1.287,1.287,0,0,0,496.629,0Z" transform="translate(-484.435)" fill="#a5a5a5" fill-rule="evenodd"/>
          <path id="Combined-Shape-3" data-name="Combined-Shape" d="M279.482,1.509v0h0a.07.07,0,0,1,.131.032h0V3.795h1.162V0h-1.162a.466.466,0,0,0-.376.246l-.924,1.983a.078.078,0,0,1-.01.022h0a.077.077,0,0,1-.141-.044V0H277V3.795h1.162a.466.466,0,0,0,.369-.245l.949-2.035,0-.005Z" transform="translate(-271.637)" fill="#a5a5a5" fill-rule="evenodd"/>
          <path id="Combined-Shape-4" data-name="Combined-Shape" d="M3.507,1.574,2.828,3.795H1.993L1.313,1.573a.076.076,0,0,0-.152.014h0V3.795H0V0H1.294a.555.555,0,0,1,.5.37L2.36,2.219c.028.092.074.092.1,0L3.027.37a.555.555,0,0,1,.5-.37H4.821V3.795H3.659V1.588s0,0,0,0a.076.076,0,0,0-.152-.013Z" fill="#a5a5a5" fill-rule="evenodd"/>
        </g>
      </g>
    </g>
  </g>
</svg>
