<svg id="visa" xmlns="http://www.w3.org/2000/svg" width="52.185" height="16" viewBox="0 0 52.185 16">
  <path id="polygon10" d="M31.018,15.955,33.66.454h4.225l-2.643,15.5Z" transform="translate(-12.634 -0.185)" fill="#e6e6e6"/>
  <path id="path12" d="M55.286.651A10.9,10.9,0,0,0,51.5,0c-4.175,0-7.116,2.1-7.14,5.115-.023,2.227,2.1,3.47,3.7,4.211,1.645.759,2.2,1.244,2.19,1.923-.01,1.038-1.313,1.514-2.528,1.514a8.859,8.859,0,0,1-3.977-.814L43.2,11.7l-.593,3.47A13.373,13.373,0,0,0,47.315,16c4.441,0,7.324-2.078,7.357-5.3.016-1.764-1.11-3.105-3.547-4.212-1.477-.717-2.381-1.2-2.372-1.922,0-.644.766-1.333,2.42-1.333a7.784,7.784,0,0,1,3.162.594l.379.179L55.286.651Z" transform="translate(-17.355 0)" fill="#e6e6e6"/>
  <path id="path14" d="M74.2.478H70.937a2.1,2.1,0,0,0-2.213,1.286l-6.275,14.2h4.436s.726-1.91.89-2.329l5.411.007c.127.542.514,2.323.514,2.323h3.921L74.2.478m-5.21,9.991c.349-.893,1.683-4.333,1.683-4.333-.025.041.347-.9.56-1.479l.286,1.336s.809,3.7.978,4.476Z" transform="translate(-25.437 -0.195)" fill="#e6e6e6"/>
  <path id="path16" d="M17.872.473,13.736,11.043,13.3,8.9a12.1,12.1,0,0,0-5.852-6.5l3.782,13.556,4.47-.005L22.348.473H17.872Z" transform="translate(-3.032 -0.193)" fill="#e6e6e6"/>
  <path id="path18" d="M6.867.457H.054L0,.78C5.3,2.062,8.807,5.163,10.263,8.889L8.782,1.766A1.769,1.769,0,0,0,6.867.457Z" transform="translate(0 -0.186)" fill="#d9d9d9"/>
</svg>
