<svg xmlns="http://www.w3.org/2000/svg" width="40.088" height="20" viewBox="0 0 40.088 20">
  <g id="visa-verified" transform="translate(-1165.921 -1287.386)" opacity="0.5">
    <path id="Контур_208" data-name="Контур 208" d="M2.89,7.45.755.892H1.67L2.694,4.117c.283.893.523,1.677.7,2.462h.022c.174-.763.458-1.591.741-2.441L5.265.892H6.18L3.827,7.45H2.89Zm3.747-2.2A1.512,1.512,0,0,0,8.25,6.884a3.248,3.248,0,0,0,1.307-.24l.152.61a4,4,0,0,1-1.569.283,2.18,2.18,0,0,1-2.31-2.375,2.291,2.291,0,0,1,2.2-2.549A1.984,1.984,0,0,1,9.971,4.836c0,.175-.022.305-.022.392L6.637,5.25Zm2.505-.61a1.213,1.213,0,0,0-1.2-1.395A1.413,1.413,0,0,0,6.637,4.64Zm1.5-.436c0-.544,0-1.024-.043-1.46h.741l.022.915h.043a1.421,1.421,0,0,1,1.307-1.024.812.812,0,0,1,.24.022v.806a1.145,1.145,0,0,0-.283-.022A1.212,1.212,0,0,0,11.517,4.53a2.159,2.159,0,0,0-.043.392V7.428h-.85V4.2h.022Zm3.791-2.788a.509.509,0,0,1-.545.523.516.516,0,0,1-.523-.523.534.534,0,1,1,1.068,0Zm-.959,1.329h.85V7.45h-.849V2.744ZM15.461,7.45V3.4h-.654V2.744h.654V2.526A2.31,2.31,0,0,1,16.006.871,1.663,1.663,0,0,1,17.16.435a2.153,2.153,0,0,1,.741.13l-.109.654a1.2,1.2,0,0,0-.544-.109c-.719,0-.915.632-.915,1.372v.261h1.133V3.4H16.332V7.45h-.871ZM19.23,1.416a.5.5,0,0,1-.544.523.516.516,0,0,1-.523-.523.526.526,0,0,1,.545-.544.509.509,0,0,1,.523.544Zm-.959,1.329h.85V7.45h-.849V2.744ZM20.646,5.25a1.512,1.512,0,0,0,1.612,1.634,3.248,3.248,0,0,0,1.307-.24l.152.61a4,4,0,0,1-1.569.283,2.18,2.18,0,0,1-2.31-2.375,2.29,2.29,0,0,1,2.2-2.549A1.984,1.984,0,0,1,23.98,4.836c0,.175-.022.305-.022.392Zm2.505-.61a1.226,1.226,0,0,0-1.2-1.395A1.413,1.413,0,0,0,20.646,4.64Zm5.578-4.1V6.23a10.749,10.749,0,0,0,.043,1.22H28.01l-.044-.828h-.022a1.732,1.732,0,0,1-1.613.915,2.142,2.142,0,0,1-2-2.4,2.253,2.253,0,0,1,2.114-2.528,1.59,1.59,0,0,1,1.416.719h.022V.544h.849Zm-.85,4.118a1.073,1.073,0,0,0-.044-.371,1.269,1.269,0,0,0-1.242-1c-.893,0-1.416.784-1.416,1.83,0,.959.458,1.743,1.394,1.743a1.308,1.308,0,0,0,1.264-1.024,1.913,1.913,0,0,0,.044-.37V4.661ZM31.888,7.45c.022-.326.043-.806.043-1.22V.544h.85V3.507H32.8a1.774,1.774,0,0,1,1.612-.872,2.1,2.1,0,0,1,1.983,2.4,2.252,2.252,0,0,1-2.113,2.528,1.661,1.661,0,0,1-1.569-.893h-.022l-.043.784h-.763Zm.893-1.9a1.305,1.305,0,0,0,.043.305,1.329,1.329,0,0,0,1.286,1c.893,0,1.438-.741,1.438-1.808,0-.937-.479-1.743-1.394-1.743a1.358,1.358,0,0,0-1.307,1.046A1.516,1.516,0,0,0,32.8,4.7v.85Zm4.553-2.811,1.024,2.789c.109.305.218.676.305.959h.022c.087-.283.174-.654.305-.981l.936-2.767h.915L39.557,6.1A7.032,7.032,0,0,1,37.945,9.04a2.068,2.068,0,0,1-1.046.545l-.218-.719a1.969,1.969,0,0,0,.741-.414,2.5,2.5,0,0,0,.719-.959.5.5,0,0,0,.065-.2.7.7,0,0,0-.065-.218L36.4,2.744ZM14.96,10.653s-1.683,6.313-2.593,6.558-1.045-5.577-1.045-5.577a1.16,1.16,0,0,0-1.155-.981H5.918l-.065.283a10.834,10.834,0,0,1,2.462.828,1.014,1.014,0,0,1,.588.849L10.886,20.3h2.658L17.6,10.653H14.96Zm3.7,0L16.594,20.3H19.1l2.048-9.652Zm5.774,2.68c0-.348.348-.719,1.067-.806a4.684,4.684,0,0,1,2.462.436l.435-2.048a6.725,6.725,0,0,0-2.331-.436c-2.462,0-4.2,1.307-4.227,3.2-.022,1.394,1.242,2.157,2.179,2.614.981.48,1.307.763,1.286,1.2,0,.654-.784.937-1.482.937a5.323,5.323,0,0,1-2.571-.61L20.8,19.934a7.474,7.474,0,0,0,2.767.5c2.614,0,4.335-1.285,4.335-3.312.044-2.505-3.486-2.658-3.464-3.791m7.212,3.551,1.329-3.617.741,3.617h-2.07Zm.959-6.231a1.152,1.152,0,0,0-1.068.7l-3.747,8.933h2.614l.523-1.438h3.2l.305,1.438h2.31l-2-9.652H32.607v.022Z" transform="translate(1165.166 1286.951)" fill="#e6e6e6"/>
  </g>
</svg>
